<svg xmlns="http://www.w3.org/2000/svg" viewBox="0 0 570.72 61.93"><defs><style>.cls-1{fill:#9a9a9a;}.cls-2{fill:#a00;}</style></defs><title>Asset 2</title><g id="Layer_2" data-name="Layer 2"><g id="Layer_2-2" data-name="Layer 2"><path d="M23.53,29.29H10.43L7.94,36.76H0L13.5.5h6.92L34,36.76H26ZM12.45,23.23h9.06L17,9.66Z"/><path d="M37.23,36.76V.5H48.39a16.94,16.94,0,0,1,8.55,2.15,15,15,0,0,1,5.89,6.13,18.9,18.9,0,0,1,2.12,9v1.67a19,19,0,0,1-2.08,9A14.89,14.89,0,0,1,57,34.56a17.07,17.07,0,0,1-8.54,2.19ZM44.7,6.55V30.75h3.61A8.11,8.11,0,0,0,55,27.89Q57.33,25,57.38,19.7V17.78q0-5.53-2.29-8.38a8.09,8.09,0,0,0-6.7-2.85Z"/><path d="M70,36.76V.5H81.11a16.94,16.94,0,0,1,8.55,2.15,15,15,0,0,1,5.89,6.13,18.9,18.9,0,0,1,2.12,9v1.67a19,19,0,0,1-2.08,9,14.89,14.89,0,0,1-5.86,6.1,17.07,17.07,0,0,1-8.54,2.19ZM77.42,6.55V30.75H81a8.11,8.11,0,0,0,6.7-2.86Q90,25,90.1,19.7V17.78q0-5.53-2.29-8.38a8.09,8.09,0,0,0-6.7-2.85Z"/><path d="M110.44,36.76H103V.5h7.47Z"/><path d="M145.39,24.68a12.83,12.83,0,0,1-4.32,9.21q-3.9,3.36-10.27,3.36-7,0-11-4.69t-4-12.89V17.46a21.73,21.73,0,0,1,1.84-9.21,13.82,13.82,0,0,1,5.27-6.11,14.76,14.76,0,0,1,8-2.13Q137.17,0,141,3.36a13.79,13.79,0,0,1,4.43,9.44H138q-.28-3.51-2-5.09a7.24,7.24,0,0,0-5.12-1.58A6.35,6.35,0,0,0,125.3,8.8q-1.86,2.68-1.91,8.31v2.74q0,5.88,1.78,8.59a6.23,6.23,0,0,0,5.62,2.71A7.37,7.37,0,0,0,136,29.57a7.14,7.14,0,0,0,2-4.89Z"/><path d="M177,6.55H165.94V36.76h-7.47V6.55h-11V.5H177Z"/><path d="M188.4,36.76h-7.47V.5h7.47Z"/><path d="M208.33,27.77,216.55.5h8.32L212.24,36.76h-7.79L191.87.5h8.29Z"/><path d="M249.94,21H235.6v9.76h16.83v6h-24.3V.5h24.25V6.55H235.6v8.64h14.34Z"/><path d="M298,24.68a12.83,12.83,0,0,1-4.32,9.21q-3.9,3.36-10.27,3.36-7,0-11-4.69t-4-12.89V17.46a21.72,21.72,0,0,1,1.84-9.21,13.81,13.81,0,0,1,5.27-6.11,14.76,14.76,0,0,1,8-2.13q6.28,0,10.11,3.36A13.79,13.79,0,0,1,298,12.8h-7.47q-.27-3.51-2-5.09a7.24,7.24,0,0,0-5.12-1.58,6.35,6.35,0,0,0-5.59,2.68Q276,11.48,276,17.11v2.74q0,5.88,1.78,8.59a6.23,6.23,0,0,0,5.62,2.71,7.38,7.38,0,0,0,5.17-1.58,7.15,7.15,0,0,0,2-4.89Z"/><path d="M332.18,19.45a21.89,21.89,0,0,1-1.89,9.39,14.25,14.25,0,0,1-5.42,6.23,16,16,0,0,1-16.12,0,14.38,14.38,0,0,1-5.48-6.19,21.26,21.26,0,0,1-2-9.25V17.85a21.78,21.78,0,0,1,1.93-9.43,14.37,14.37,0,0,1,5.45-6.25,16,16,0,0,1,16.11,0,14.37,14.37,0,0,1,5.45,6.25,21.72,21.72,0,0,1,1.93,9.4Zm-7.57-1.64q0-5.7-2-8.67a7.21,7.21,0,0,0-11.63,0q-2,2.93-2.07,8.58v1.77q0,5.55,2,8.62a7.15,7.15,0,0,0,11.65.11q2-3,2-8.6Z"/><path d="M347.06.5l9.31,26.3L365.64.5h9.81V36.76H368V26.84l.75-17.11-9.79,27h-5.13L344,9.76l.75,17.08v9.91H337.3V.5Z"/><path d="M391.63.5l9.31,26.3L410.21.5H420V36.76h-7.5V26.84l.75-17.11-9.79,27h-5.13l-9.76-27,.75,17.08v9.91h-7.47V.5Z"/><path d="M454,.5V24.38a12.23,12.23,0,0,1-3.72,9.41q-3.72,3.46-10.17,3.46T430,33.89a12,12,0,0,1-3.81-9.24V.5h7.47V24.43q0,3.56,1.71,5.19a6.55,6.55,0,0,0,4.72,1.63q6.3,0,6.4-6.62V.5Z"/><path d="M489.64,36.76h-7.47L467.62,12.9V36.76h-7.47V.5h7.47L482.19,24.4V.5h7.45Z"/><path d="M503.75,36.76h-7.47V.5h7.47Z"/><path d="M537.14,6.55H526V36.76h-7.47V6.55h-11V.5h29.53Z"/><path d="M555,16.83,562.55.5h8.17l-11.9,23.11V36.76h-7.6V23.61L539.32.5h8.19Z"/><path class="cls-1" d="M11,49.05H6.43V61.74H4.56V49.05H0V47.52H11Z"/><path class="cls-1" d="M24.07,61.74H22.19V55.16H15v6.57H13.14V47.52H15v6.11h7.17V47.52h1.88Z"/><path class="cls-1" d="M35.39,55.16H29.23v5h7.16v1.53h-9V47.52h8.94v1.53H29.23v4.58h6.16Z"/><path class="cls-1" d="M43.67,61.74V47.52h4a6.46,6.46,0,0,1,3.28.82,5.55,5.55,0,0,1,2.2,2.33A7.59,7.59,0,0,1,54,54.15v.91a7.62,7.62,0,0,1-.78,3.53A5.46,5.46,0,0,1,51,60.91a6.87,6.87,0,0,1-3.35.83Zm1.88-12.69V60.2h2a4.29,4.29,0,0,0,3.37-1.35A5.57,5.57,0,0,0,52.1,55v-.83A5.66,5.66,0,0,0,51,50.41a4,4,0,0,0-3.23-1.36Z"/><path class="cls-1" d="M64.74,55.16H58.58v5h7.16v1.53h-9V47.52h8.94v1.53H58.58v4.58h6.16Z"/><path class="cls-1" d="M75.84,55.46h-6v6.28H68V47.52h8.81v1.53H69.88v4.87h6Z"/><path class="cls-1" d="M81,61.74H79.09V47.52H81Z"/><path class="cls-1" d="M95.23,61.74H93.35l-7.16-11v11H84.3V47.52h1.88l7.18,11v-11h1.87Z"/><path class="cls-1" d="M100.46,61.74H98.58V47.52h1.88Z"/><path class="cls-1" d="M113.68,49.05h-4.57V61.74h-1.87V49.05h-4.56V47.52h11Z"/><path class="cls-1" d="M117.77,61.74H115.9V47.52h1.88Z"/><path class="cls-1" d="M126,59.25,130,47.52h2.05l-5.27,14.22h-1.66L119.9,47.52h2Z"/><path class="cls-1" d="M142.18,55.16H136v5h7.16v1.53h-9V47.52h8.94v1.53H136v4.58h6.16Z"/><path class="cls-1" d="M161.4,55.09a8.79,8.79,0,0,1-.7,3.65,5.33,5.33,0,0,1-2,2.38,5.5,5.5,0,0,1-8-2.36,8.43,8.43,0,0,1-.74-3.54v-1a8.69,8.69,0,0,1,.71-3.62,5.27,5.27,0,0,1,5-3.24,5.52,5.52,0,0,1,3,.83,5.31,5.31,0,0,1,2,2.39,8.84,8.84,0,0,1,.7,3.65Zm-1.87-.92a6.38,6.38,0,0,0-1-3.88,3.35,3.35,0,0,0-2.84-1.35,3.31,3.31,0,0,0-2.8,1.35,6.24,6.24,0,0,0-1,3.75v1a6.38,6.38,0,0,0,1,3.85,3.61,3.61,0,0,0,5.65.08,6.35,6.35,0,0,0,1-3.79Z"/><path class="cls-1" d="M166,56.17v5.57h-1.87V47.52h5.24a5.27,5.27,0,0,1,3.66,1.19,4,4,0,0,1,1.32,3.15,4,4,0,0,1-1.29,3.19,5.51,5.51,0,0,1-3.71,1.12Zm0-1.53h3.37a3.37,3.37,0,0,0,2.3-.71,2.6,2.6,0,0,0,.8-2,2.68,2.68,0,0,0-.8-2,3.16,3.16,0,0,0-2.2-.79H166Z"/><path class="cls-1" d="M184.72,55.16h-6.16v5h7.16v1.53h-9V47.52h8.94v1.53h-7.06v4.58h6.16Z"/><path class="cls-1" d="M198.91,61.74H197l-7.16-11v11H188V47.52h1.88l7.18,11v-11h1.87Z"/><path class="cls-1" d="M206.22,56.43h-4.77V55h4.77Z"/><path class="cls-1" d="M212.81,55.4a8.82,8.82,0,0,1-3.51-1.7,3.26,3.26,0,0,1-1.1-2.5,3.44,3.44,0,0,1,1.34-2.78,5.34,5.34,0,0,1,3.49-1.1,5.82,5.82,0,0,1,2.61.57,4.29,4.29,0,0,1,1.78,1.56,4,4,0,0,1,.63,2.18h-1.88a2.6,2.6,0,0,0-.82-2,3.34,3.34,0,0,0-2.31-.74,3.42,3.42,0,0,0-2.16.61,2,2,0,0,0-.78,1.7,1.84,1.84,0,0,0,.74,1.47,7.24,7.24,0,0,0,2.51,1.1,11.65,11.65,0,0,1,2.77,1.1,4.2,4.2,0,0,1,1.48,1.4,3.58,3.58,0,0,1,.48,1.88,3.32,3.32,0,0,1-1.35,2.77,5.75,5.75,0,0,1-3.6,1,6.69,6.69,0,0,1-2.73-.56,4.6,4.6,0,0,1-2-1.54,3.75,3.75,0,0,1-.69-2.22h1.88a2.45,2.45,0,0,0,1,2,4,4,0,0,0,2.54.75,3.69,3.69,0,0,0,2.28-.61,2,2,0,0,0,.79-1.65,1.93,1.93,0,0,0-.73-1.62A8.44,8.44,0,0,0,212.81,55.4Z"/><path class="cls-1" d="M231.45,55.09a8.79,8.79,0,0,1-.7,3.65,5.33,5.33,0,0,1-2,2.38,5.5,5.5,0,0,1-8-2.36,8.45,8.45,0,0,1-.74-3.54v-1a8.7,8.7,0,0,1,.71-3.62,5.27,5.27,0,0,1,5-3.24,5.51,5.51,0,0,1,3,.83,5.31,5.31,0,0,1,2,2.39,8.84,8.84,0,0,1,.7,3.65Zm-1.87-.92a6.37,6.37,0,0,0-1-3.88,3.35,3.35,0,0,0-2.84-1.35,3.32,3.32,0,0,0-2.8,1.35,6.25,6.25,0,0,0-1,3.75v1a6.39,6.39,0,0,0,1,3.85,3.61,3.61,0,0,0,5.65.08,6.35,6.35,0,0,0,1-3.79Z"/><path class="cls-1" d="M244.31,47.52v9.67A4.54,4.54,0,0,1,243,60.48a5.1,5.1,0,0,1-3.4,1.44l-.5,0a5.32,5.32,0,0,1-3.72-1.26A4.5,4.5,0,0,1,234,57.21V47.52h1.86v9.63a3,3,0,0,0,3.27,3.25,3.29,3.29,0,0,0,2.44-.85,3.25,3.25,0,0,0,.84-2.39V47.52Z"/><path class="cls-1" d="M252.6,56h-3.34v5.75h-1.88V47.52h4.71a5.57,5.57,0,0,1,3.7,1.09,3.94,3.94,0,0,1,1.29,3.18,3.83,3.83,0,0,1-.72,2.31,4.29,4.29,0,0,1-2,1.47l3.34,6v.12h-2Zm-3.34-1.53h2.88a3.25,3.25,0,0,0,2.22-.72,2.45,2.45,0,0,0,.83-1.94,2.58,2.58,0,0,0-.79-2,3.33,3.33,0,0,0-2.27-.71h-2.87Z"/><path class="cls-1" d="M270.14,57.22a5.23,5.23,0,0,1-1.67,3.48,5.45,5.45,0,0,1-3.73,1.23,5,5,0,0,1-4-1.81,7.27,7.27,0,0,1-1.52-4.83V53.92a8.11,8.11,0,0,1,.71-3.49,5.29,5.29,0,0,1,2-2.31,5.59,5.59,0,0,1,3-.81,5.14,5.14,0,0,1,3.63,1.26,5.29,5.29,0,0,1,1.59,3.5h-1.88a4.08,4.08,0,0,0-1.06-2.47,3.21,3.21,0,0,0-2.28-.76,3.36,3.36,0,0,0-2.82,1.33,6.11,6.11,0,0,0-1,3.78v1.38A6.27,6.27,0,0,0,262,59a3.12,3.12,0,0,0,2.71,1.37,3.61,3.61,0,0,0,2.4-.71,3.92,3.92,0,0,0,1.11-2.47Z"/><path class="cls-1" d="M280.72,55.16h-6.16v5h7.16v1.53h-9V47.52h8.94v1.53h-7.06v4.58h6.16Z"/><path class="cls-1" d="M296.84,55.46h-6v6.28H289V47.52h8.81v1.53h-6.93v4.87h6Z"/><path class="cls-1" d="M310.73,55.09a8.79,8.79,0,0,1-.7,3.65,5.33,5.33,0,0,1-2,2.38,5.5,5.5,0,0,1-8-2.36,8.43,8.43,0,0,1-.74-3.54v-1a8.69,8.69,0,0,1,.71-3.62,5.27,5.27,0,0,1,5-3.24,5.51,5.51,0,0,1,3,.83,5.31,5.31,0,0,1,2,2.39,8.84,8.84,0,0,1,.7,3.65Zm-1.87-.92a6.38,6.38,0,0,0-1-3.88A3.35,3.35,0,0,0,305,48.93a3.32,3.32,0,0,0-2.8,1.35,6.24,6.24,0,0,0-1,3.75v1a6.39,6.39,0,0,0,1,3.85,3.61,3.61,0,0,0,5.65.08,6.35,6.35,0,0,0,1-3.79Z"/><path class="cls-1" d="M318.71,56h-3.34v5.75h-1.88V47.52h4.71a5.57,5.57,0,0,1,3.7,1.09,3.94,3.94,0,0,1,1.29,3.18,3.83,3.83,0,0,1-.72,2.31,4.29,4.29,0,0,1-2,1.47l3.34,6v.12h-2Zm-3.34-1.53h2.88a3.25,3.25,0,0,0,2.22-.72,2.45,2.45,0,0,0,.83-1.94,2.58,2.58,0,0,0-.79-2,3.33,3.33,0,0,0-2.27-.71h-2.87Z"/><path class="cls-1" d="M335.86,47.52v9.67a4.54,4.54,0,0,1-1.26,3.29,5.1,5.1,0,0,1-3.4,1.44l-.5,0A5.32,5.32,0,0,1,327,60.67a4.5,4.5,0,0,1-1.41-3.47V47.52h1.86v9.63a3,3,0,0,0,3.27,3.25,3.29,3.29,0,0,0,2.44-.85,3.25,3.25,0,0,0,.84-2.39V47.52Z"/><path class="cls-1" d="M341.37,47.52,346,59.12l4.65-11.6h2.43V61.74h-1.87V56.2l.18-6-4.67,11.51h-1.44l-4.66-11.48.19,5.95v5.54h-1.87V47.52Z"/><path class="cls-1" d="M365.54,55.4a8.81,8.81,0,0,1-3.51-1.7,3.26,3.26,0,0,1-1.1-2.5,3.44,3.44,0,0,1,1.34-2.78,5.34,5.34,0,0,1,3.49-1.1,5.82,5.82,0,0,1,2.61.57,4.3,4.3,0,0,1,1.78,1.56,4,4,0,0,1,.63,2.18H368.9a2.6,2.6,0,0,0-.82-2,3.34,3.34,0,0,0-2.31-.74,3.42,3.42,0,0,0-2.16.61,2,2,0,0,0-.78,1.7,1.84,1.84,0,0,0,.74,1.47,7.23,7.23,0,0,0,2.51,1.1,11.65,11.65,0,0,1,2.77,1.1,4.21,4.21,0,0,1,1.48,1.4,3.58,3.58,0,0,1,.48,1.88,3.32,3.32,0,0,1-1.35,2.77,5.75,5.75,0,0,1-3.6,1,6.69,6.69,0,0,1-2.73-.56,4.59,4.59,0,0,1-2-1.54,3.75,3.75,0,0,1-.69-2.22h1.88a2.45,2.45,0,0,0,1,2,4,4,0,0,0,2.54.75,3.69,3.69,0,0,0,2.28-.61,2,2,0,0,0,.79-1.65,1.93,1.93,0,0,0-.73-1.62A8.45,8.45,0,0,0,365.54,55.4Z"/><path class="cls-1" d="M384.19,55.09a8.79,8.79,0,0,1-.7,3.65,5.33,5.33,0,0,1-2,2.38,5.5,5.5,0,0,1-8-2.36,8.43,8.43,0,0,1-.74-3.54v-1a8.69,8.69,0,0,1,.71-3.62,5.27,5.27,0,0,1,5-3.24,5.51,5.51,0,0,1,3,.83,5.31,5.31,0,0,1,2,2.39,8.84,8.84,0,0,1,.7,3.65Zm-1.87-.92a6.38,6.38,0,0,0-1-3.88,3.35,3.35,0,0,0-2.84-1.35,3.32,3.32,0,0,0-2.8,1.35,6.24,6.24,0,0,0-1,3.75v1a6.39,6.39,0,0,0,1,3.85,3.61,3.61,0,0,0,5.65.08,6.35,6.35,0,0,0,1-3.79Z"/><path class="cls-1" d="M394.8,55.46h-6v6.28H387V47.52h8.81v1.53h-6.93v4.87h6Z"/><path class="cls-1" d="M408.41,49.05h-4.57V61.74H402V49.05h-4.56V47.52h11Z"/><path class="cls-1" d="M414.16,57.25l.27,1.88.4-1.69,2.81-9.92h1.58L422,57.44l.39,1.72.3-1.91,2.21-9.73h1.88l-3.45,14.22H421.6l-2.93-10.36-.22-1.08-.22,1.08-3,10.36h-1.71L410,47.52h1.88Z"/><path class="cls-1" d="M435.83,58h-6l-1.34,3.72H426.6L432,47.52h1.64l5.44,14.22h-1.92Zm-5.39-1.53h4.83l-2.42-6.65Z"/><path class="cls-1" d="M446.38,56H443v5.75h-1.88V47.52h4.71a5.57,5.57,0,0,1,3.7,1.09,3.94,3.94,0,0,1,1.29,3.18,3.83,3.83,0,0,1-.72,2.31,4.29,4.29,0,0,1-2,1.47l3.34,6v.12h-2ZM443,54.45h2.88a3.25,3.25,0,0,0,2.22-.72,2.45,2.45,0,0,0,.83-1.94,2.58,2.58,0,0,0-.79-2,3.33,3.33,0,0,0-2.27-.71H443Z"/><path class="cls-1" d="M461.62,55.16h-6.16v5h7.16v1.53h-9V47.52h8.94v1.53h-7.06v4.58h6.16Z"/><path class="cls-2" d="M525,61.74V47.52h4.65a5.4,5.4,0,0,1,3.48,1,3.45,3.45,0,0,1,1.17,2.83,2.89,2.89,0,0,1-.57,1.76,3.68,3.68,0,0,1-1.54,1.19A3.3,3.3,0,0,1,534,55.48a3.52,3.52,0,0,1,.67,2.15,3.8,3.8,0,0,1-1.24,3,5.13,5.13,0,0,1-3.51,1.09Zm1.88-8.15h2.83a3,3,0,0,0,2-.62,2.07,2.07,0,0,0,.74-1.67,2,2,0,0,0-.68-1.71,3.36,3.36,0,0,0-2.08-.53h-2.77Zm0,1.5V60.2H530a3,3,0,0,0,2.07-.68,2.38,2.38,0,0,0,.76-1.87q0-2.57-2.79-2.57Z"/><path class="cls-2" d="M545.42,55.16h-6.16v5h7.16v1.53h-9V47.52h8.94v1.53h-7.06v4.58h6.16Z"/><path class="cls-2" d="M559.05,49.05h-4.57V61.74h-1.87V49.05h-4.56V47.52h11Z"/><path class="cls-2" d="M567.44,58h-6l-1.34,3.72h-1.93l5.43-14.22h1.64l5.44,14.22H568.8ZM562,56.48h4.83l-2.42-6.65Z"/></g></g></svg>